<?xml version="1.0" encoding="utf-8"?><svg version="1.1" id="Layer_1" xmlns="http://www.w3.org/2000/svg" xmlns:xlink="http://www.w3.org/1999/xlink" x="0px" y="0px" viewBox="0 0 122.88 100.285" enable-background="new 0 0 122.88 100.285" xml:space="preserve"><g><path fill-rule="evenodd" clip-rule="evenodd" d="M9.298,83.102V47.568c-1.89,0.728-3.659,0.743-5.128,0.243 c-1.147-0.388-2.117-1.083-2.827-1.979c-0.712-0.896-1.163-1.987-1.301-3.19c-0.21-1.865,0.348-3.974,1.939-5.952l0,0 c0.081-0.096,0.17-0.193,0.274-0.274l46.081-35.97c0.597-0.549,1.519-0.605,2.181-0.089l30.725,23.886l-0.288,0.098 c-4.631,1.606-8.641,4.521-11.049,8.752c-8.701-6.99-18.282-14.552-20.116-15.979c-3.706,2.818-35.969,27.66-35.969,28.709v37.294 L9.298,83.102L9.298,83.102L9.298,83.102z M97.701,45.109l-0.325-2.174c0.489-0.086,0.872-0.289,1.146-0.611 c0.278-0.324,0.402-0.683,0.385-1.085c-0.023-0.46-0.227-0.838-0.611-1.142c-0.388-0.301-0.958-0.434-1.708-0.395 c-0.699,0.029-1.22,0.215-1.559,0.553c-0.338,0.33-0.496,0.75-0.472,1.255c0.029,0.63,0.338,1.183,0.923,1.656l-0.177,1.792 l-6.467-0.777l0.174-5.867l2.052-0.102l0.2,4.145l1.961,0.248c-0.27-0.477-0.416-0.972-0.442-1.487 c-0.048-0.97,0.268-1.816,0.944-2.523c0.677-0.712,1.582-1.096,2.709-1.146c0.944-0.045,1.801,0.188,2.563,0.698 c1.042,0.695,1.598,1.705,1.663,3.027c0.049,1.058-0.188,1.933-0.728,2.626C99.399,44.5,98.654,44.936,97.701,45.109L97.701,45.109 L97.701,45.109L97.701,45.109L97.701,45.109z M78.867,68.461c-2.141-1.604-3.399-3.557-3.399-5.661c0-1.028,0.3-2.022,0.86-2.958 c0.99,1.662,2.797,3.134,5.171,4.29C80.487,65.48,79.604,66.929,78.867,68.461L78.867,68.461z M102.254,59.032 c11.392,0,20.626,9.235,20.626,20.626c0,11.392-9.234,20.627-20.626,20.627S81.628,91.05,81.628,79.658 C81.628,68.268,90.862,59.032,102.254,59.032L102.254,59.032z M94.54,73.734c-0.599,0-1.054,0.178-1.372,0.516 c-0.317,0.348-0.479,0.838-0.479,1.469c0,0.634,0.161,1.129,0.479,1.473c0.318,0.344,0.773,0.519,1.372,0.519 c0.606,0,1.065-0.175,1.384-0.519c0.318-0.354,0.468-0.839,0.468-1.473c0-0.631-0.149-1.121-0.468-1.469 C95.615,73.912,95.152,73.734,94.54,73.734L94.54,73.734L94.54,73.734z M109.97,82.691c-0.605,0-1.064,0.175-1.384,0.519 c-0.315,0.354-0.479,0.832-0.479,1.474c0,0.631,0.163,1.12,0.479,1.468c0.319,0.344,0.778,0.517,1.384,0.517 c0.595,0,1.055-0.179,1.373-0.517c0.317-0.348,0.479-0.837,0.479-1.468c0-0.642-0.161-1.126-0.479-1.474 C111.033,82.862,110.57,82.691,109.97,82.691L109.97,82.691L109.97,82.691z M109.968,79.505c1.65,0,2.976,0.476,3.983,1.412 c1.001,0.944,1.509,2.196,1.509,3.76c0,1.56-0.508,2.816-1.509,3.755c-1.008,0.944-2.333,1.412-3.983,1.412 c-1.654,0-2.982-0.468-3.99-1.412c-1.002-0.944-1.503-2.195-1.503-3.755c0-1.563,0.501-2.815,1.503-3.76 C106.985,79.98,108.313,79.505,109.968,79.505L109.968,79.505L109.968,79.505z M94.541,70.548c1.65,0,2.982,0.47,3.989,1.414 c1.001,0.943,1.504,2.194,1.504,3.755c0,1.563-0.503,2.813-1.504,3.758c-1.007,0.941-2.339,1.413-3.989,1.413 s-2.977-0.475-3.983-1.413c-1.005-0.944-1.509-2.194-1.509-3.758c0-1.561,0.504-2.817,1.509-3.755 C91.564,71.018,92.891,70.548,94.541,70.548L94.541,70.548L94.541,70.548z M106.594,71.285h4.471l-13.09,17.807h-4.474 L106.594,71.285L106.594,71.285L106.594,71.285z M76.477,76.794c-0.653-1.003-1.009-2.078-1.009-3.196 c0-1.028,0.3-2.022,0.86-2.957c0.3,0.503,0.676,0.988,1.118,1.454C76.984,73.607,76.655,75.179,76.477,76.794L76.477,76.794z M76.097,40.894c2.138-4.231,9.493-7.354,18.235-7.354l0,0l0,0l0,0c10.413,0,18.865,4.431,18.865,9.891 c0,5.457-8.452,9.89-18.865,9.89c-8.685,0-16.004-3.083-18.193-7.274C75.006,44.166,76.084,40.875,76.097,40.894L76.097,40.894z M94.332,35.56c8.563,0,15.502,2.726,15.502,6.082c0,3.362-6.938,6.081-15.502,6.081c-8.562,0-15.501-2.726-15.501-6.081 C78.831,38.28,85.771,35.56,94.332,35.56L94.332,35.56L94.332,35.56L94.332,35.56L94.332,35.56L94.332,35.56z M112.406,50.028 c0.518,0.902,0.791,1.853,0.791,2.838c0,1.014-0.292,1.991-0.833,2.913c-1.548-0.659-3.172-1.171-4.855-1.52 C109.769,53.104,111.478,51.654,112.406,50.028L112.406,50.028L112.406,50.028L112.406,50.028L112.406,50.028L112.406,50.028z M84.09,61.172c-5.187-1.762-8.622-4.821-8.622-8.306c0-0.985,0.28-1.942,0.79-2.838c1.922,3.364,7.17,5.973,13.743,6.783 C87.828,57.981,85.838,59.454,84.09,61.172L84.09,61.172z M51.155,44.977v14.527h13.034v-0.039c0-4.006-1.64-7.648-4.28-10.289 C57.608,46.874,54.546,45.331,51.155,44.977L51.155,44.977L51.155,44.977z M51.155,62.573v12.614h13.034V62.573H51.155 L51.155,62.573L51.155,62.573z M48.085,75.18V62.573H35.052v12.614h13.034V75.18L48.085,75.18z M48.085,59.504V44.977 c-3.399,0.363-6.452,1.897-8.753,4.199c-2.642,2.641-4.281,6.283-4.281,10.289v0.039H48.085L48.085,59.504L48.085,59.504z M28.745,81.584h40.471c0.291,1.102,0.636,2.126,1.049,3.068h-41.52V81.584L28.745,81.584L28.745,81.584z M49.62,41.827 c4.854,0,9.264,1.986,12.453,5.176c3.198,3.198,5.177,7.607,5.177,12.453V78.24H31.982V59.456c0-4.854,1.987-9.263,5.177-12.453 C40.357,43.813,44.767,41.827,49.62,41.827L49.62,41.827L49.62,41.827z M75.722,2.868l13.866,0.566v18.729l-13.866-9.151V2.868 L75.722,2.868L75.722,2.868L75.722,2.868z"/></g></svg>