<?xml version="1.0" encoding="utf-8"?><svg version="1.1" id="Layer_1" xmlns="http://www.w3.org/2000/svg" xmlns:xlink="http://www.w3.org/1999/xlink" x="0px" y="0px" viewBox="0 0 122.88 114.25" style="enable-background:new 0 0 122.88 114.25" xml:space="preserve"><style type="text/css">.st0{fill-rule:evenodd;clip-rule:evenodd;}</style><g><path class="st0" d="M49.94,0c12.75,0,23.08,10.33,23.08,23.08c0,1.75-0.2,3.45-0.56,5.09c0.61,0.07,1.22,0.14,1.82,0.22 c0.96,0.13,1.92,0.26,2.86,0.41l0.25,0.06c0.36,0.12,0.7,0.19,1.01,0.21c0.34,0.02,0.66,0,0.96-0.06c0.86-0.17,2.14-0.97,3.52-1.83 c1.54-0.96,3.19-1.98,4.94-2.57c1.18-0.4,5.3-0.67,9.22-0.75c4.46-0.1,8.89,0.28,9.34,1.18c0.35,0.69,0.57,1.58,0.49,2.57 c-0.06,0.79-0.31,1.64-0.82,2.5c-1.17,1.97-3.28,3.43-5.28,4.8c-2.03,1.39-3.89,2.67-3.58,3.63c0.02,0.08,0.22,0.25,0.52,0.49 c0.44,0.35,1.08,0.76,1.75,1.17c2.69,1.64,4.79,3.38,6.57,5.43c1.76,2.03,3.22,4.35,4.65,7.2c0.42,0.83,0.82,1.68,1.2,2.56 c0.41,0.94,0.8,1.89,1.17,2.85l0.08,0.31c0.22,1.31,0.51,2.31,0.9,2.92c0.19,0.3,0.37,0.45,0.54,0.45l0.05-0.01h2.1 c0.34,0,0.61-0.02,0.85-0.03c2-0.14,3.12-0.21,4.29,2.79c0.81,2.08,1.08,4.98,0.96,7.87c-0.13,3.11-0.7,6.28-1.53,8.45 c-0.3,1.43-0.95,2.57-1.96,3.41c-1.01,0.83-2.33,1.33-3.98,1.46l-0.13,0.01h-2.34c-1.02,0-1.91-0.04-2.57-0.06 c-0.63-0.02-0.76-0.11-0.84-0.07c-0.12,0.06,0.03,0.07-0.14,0.29c-0.42,0.58-1.09,1.5-2.5,2.96c-1.01,1.04-2.18,2.19-3.3,3.25 c-1.04,0.98-2.08,1.91-2.94,2.63l-0.53,0.44c-0.97,0.8-1.44,1.19-1.46,1.31c-0.04,0.23,0.25,0.93,0.82,2.3 c0.24,0.58,0.39,0.93,0.44,1.06c0.57,1.4,1.14,2.76,1.66,3.95c0.87,2.01,1.83,4.13,2.14,4.83l0.03,0.07 c0.71,1.8,0.55,3.17-0.44,4.15c-0.84,0.83-2.17,1.15-3.97,1.01h-8.43c-1.18,0.08-2.3-0.17-3.35-0.77c-1-0.57-1.91-1.43-2.73-2.58 l-0.08-0.13c-0.31-0.54-0.63-1.25-0.97-2.01c-0.83-1.84-1.85-4.13-2.68-3.8c-5.72,2.23-11.31,3.56-17.36,3.76 c-5.98,0.2-12.38-0.7-19.77-2.94c-2.12-0.3-2.55,0.6-3.23,2.02c-0.19,0.4-0.39,0.83-0.67,1.36l0,0c-0.17,0.35-0.23,0.49-0.3,0.62 c-0.98,2.09-1.92,4.11-4.85,4.7l-0.32,0.03l-10.89-0.08h-0.11c-0.67-0.05-1.26-0.2-1.78-0.48c-0.6-0.31-1.06-0.76-1.39-1.36 c-0.97-1.77-0.32-3.11,0.34-4.46l-0.01,0c0.11-0.23,0.23-0.47,0.26-0.53l0.01-0.01l3.83-8.38l0.07-0.14 c0.4-0.69,0.55-1.26,0.46-1.7c-0.09-0.43-0.41-0.85-0.94-1.26l0,0c-0.76-0.54-1.5-1.1-2.21-1.67c-0.74-0.59-1.44-1.2-2.12-1.82 c-2.25-2.06-4.33-4.48-6.11-7.14c-1.71-2.55-3.15-5.33-4.19-8.23c-0.81-2.27-1.38-4.6-1.66-6.94c-0.06-0.54-0.11-1.09-0.14-1.63 c-3.53-1.7-6.02-4.73-7.22-8.73c-1.21-4.07-1.06-9.13,0.74-14.77l3.06,0.98c-1.6,4.99-1.75,9.4-0.72,12.87 c0.77,2.56,2.2,4.61,4.19,5.98c0.04-0.48,0.1-0.97,0.17-1.45c0.76-5.24,2.79-10.12,5.69-14.45c3.11-4.63,7.21-8.62,11.81-11.71 c0.78-0.52,1.59-1.03,2.42-1.52c0.61-0.36,1.21-0.69,1.79-1c-1.96-3.39-3.07-7.32-3.07-11.52C26.86,10.33,37.19,0,49.94,0L49.94,0z M94.57,56.18c1.44,0,2.74,0.58,3.68,1.52c0.94,0.94,1.52,2.24,1.52,3.68c0,1.44-0.58,2.74-1.52,3.68 c-0.94,0.94-2.24,1.52-3.68,1.52c-1.43,0-2.73-0.58-3.67-1.52l0,0l0,0c-0.94-0.94-1.52-2.24-1.52-3.67c0-1.44,0.58-2.74,1.52-3.68 C91.83,56.77,93.13,56.18,94.57,56.18L94.57,56.18z M95.97,59.99c-0.36-0.36-0.85-0.58-1.4-0.58c-0.55,0-1.04,0.22-1.4,0.58 c-0.36,0.36-0.58,0.85-0.58,1.4c0,0.55,0.22,1.05,0.57,1.4l0.01,0.01c0.35,0.35,0.85,0.57,1.4,0.57c0.55,0,1.04-0.22,1.4-0.58 c0.36-0.36,0.58-0.85,0.58-1.4C96.55,60.84,96.33,60.34,95.97,59.99L95.97,59.99z M33.06,44.03h7.18 c-3.34-1.55-6.25-3.88-8.49-6.75c-0.7,0.37-1.36,0.73-1.98,1.09c-0.76,0.44-1.51,0.92-2.25,1.42c-4.27,2.86-8.07,6.55-10.93,10.83 c-2.64,3.94-4.49,8.38-5.18,13.12c-0.28,1.97-0.29,3.96-0.06,5.94c0.25,2.11,0.76,4.2,1.48,6.22c0.95,2.64,2.26,5.18,3.83,7.52 c1.63,2.43,3.55,4.66,5.62,6.56c0.64,0.58,1.29,1.14,1.96,1.68c0.69,0.55,1.39,1.09,2.12,1.6l0.06,0.04 c1.15,0.89,1.88,1.94,2.12,3.19c0.24,1.22-0.01,2.52-0.82,3.92l-3.77,8.24l0,0c-0.15,0.33-0.22,0.48-0.3,0.63h-0.01 c-0.29,0.6-0.58,1.19-0.4,1.51c0.01,0.02,0.04,0.04,0.07,0.06c0.11,0.06,0.28,0.1,0.51,0.11v0l10.6,0.07 c1.24-0.33,1.83-1.58,2.43-2.88c0.14-0.29,0.27-0.58,0.31-0.66l0.03-0.06c0.21-0.39,0.43-0.85,0.63-1.28 c1.32-2.78,2.14-4.52,6.68-3.82l0.23,0.06c7.1,2.16,13.21,3.03,18.89,2.84c5.65-0.19,10.91-1.44,16.31-3.55 c3.67-1.43,5.39,2.4,6.77,5.49c0.28,0.63,0.54,1.21,0.8,1.67c0.53,0.73,1.07,1.26,1.62,1.57c0.5,0.28,1.03,0.4,1.6,0.35l0.13-0.01 h8.53l0.13,0.01c0.87,0.07,1.39,0.05,1.52-0.08c0,0-0.09-0.2-0.25-0.62l0,0c-0.26-0.57-1.09-2.43-2.15-4.88 c-0.63-1.45-1.25-2.9-1.7-4.01c-0.37-0.9-0.4-0.99-0.43-1.05c-0.8-1.94-1.21-2.94-1.02-4.06c0.22-1.29,1-1.93,2.6-3.25l0.52-0.43 c0.76-0.63,1.75-1.52,2.79-2.51c1.1-1.03,2.22-2.15,3.2-3.15c1.23-1.27,1.83-2.09,2.2-2.61c0.45-0.63,0.7-0.97,1.31-1.27 c0.67-0.34,1.21-0.31,2.4-0.27c0.52,0.02,1.23,0.05,2.45,0.05h2.29c0.93-0.08,1.63-0.33,2.1-0.72c0.45-0.37,0.74-0.93,0.88-1.66 l0.09-0.29c0.73-1.85,1.25-4.7,1.36-7.55c0.1-2.5-0.11-4.94-0.75-6.59c-0.31-0.79-0.59-0.78-1.08-0.74 c-0.33,0.02-0.7,0.05-1.07,0.05h-2.1v-0.01c-1.4,0.03-2.49-0.65-3.31-1.95c-0.6-0.96-1.04-2.29-1.32-3.94 c-0.36-0.94-0.71-1.8-1.06-2.58c-0.38-0.87-0.76-1.68-1.13-2.41c-1.3-2.58-2.61-4.69-4.21-6.52c-1.57-1.81-3.43-3.34-5.81-4.8 c-0.74-0.45-1.46-0.91-2.08-1.41c-0.76-0.61-1.34-1.27-1.58-2.02c-1.03-3.23,1.76-5.16,4.81-7.26c1.71-1.18,3.52-2.42,4.33-3.79 c0.24-0.4,0.35-0.77,0.38-1.1c0.03-0.36-0.04-0.66-0.15-0.88c-0.14-0.28-2.99,0.51-6.41,0.59c-3.65,0.08-7.39,0.3-8.26,0.59 c-1.37,0.46-2.86,1.39-4.26,2.26c-1.63,1.02-3.14,1.96-4.59,2.25c-0.59,0.12-1.2,0.16-1.8,0.12c-0.56-0.04-1.13-0.15-1.71-0.33 c-0.86-0.14-1.74-0.26-2.62-0.38c-0.77-0.1-1.56-0.19-2.35-0.28c-2.15,5.63-6.43,10.21-11.87,12.73h9.48v4.3H33.06V44.03 L33.06,44.03z M59.86,15.52l-6.41,1.01c-0.32-0.81-0.61-1.37-0.87-1.68c-0.26-0.31-0.68-0.63-1.28-0.95v4.97 c3.48,0.93,5.81,1.91,6.98,2.94c1.54,1.39,2.32,3.15,2.32,5.29c0,1.25-0.28,2.4-0.83,3.44c-0.56,1.05-1.27,1.91-2.13,2.62 c-0.86,0.7-1.79,1.2-2.76,1.52c-0.97,0.32-2.17,0.5-3.58,0.56v3.24h-2.5v-3.24c-1.69-0.15-3.05-0.42-4.1-0.81 c-1.05-0.39-1.96-0.94-2.72-1.64c-0.76-0.69-1.35-1.44-1.76-2.25c-0.41-0.8-0.72-1.78-0.93-2.92l6.94-0.8 c0.21,1.13,0.49,1.94,0.84,2.44c0.35,0.5,0.93,0.95,1.73,1.33v-6.08c-2.33-0.64-3.97-1.2-4.94-1.67c-0.97-0.47-1.81-1.23-2.52-2.27 c-0.71-1.04-1.07-2.3-1.07-3.79c0-2.04,0.72-3.75,2.14-5.12c1.43-1.37,3.56-2.14,6.38-2.28V7.69h2.5v1.69 c2.57,0.16,4.54,0.76,5.9,1.82C58.56,12.25,59.45,13.69,59.86,15.52L59.86,15.52z M48.8,13.82c-0.74,0.24-1.25,0.54-1.54,0.89 c-0.29,0.35-0.43,0.77-0.43,1.26c0,0.5,0.15,0.94,0.44,1.31c0.29,0.38,0.8,0.69,1.53,0.94V13.82L48.8,13.82z M51.3,30.76 c0.97-0.22,1.69-0.58,2.14-1.08c0.45-0.5,0.68-1.06,0.68-1.68c0-0.54-0.19-1.04-0.58-1.5c-0.38-0.45-1.13-0.88-2.24-1.26V30.76 L51.3,30.76z"/></g></svg>